# xmcd CD database file
#
# Track frame offsets:
#	150
#	13682
#	31167
#	43892
#	57167
#	71925
#	82520
#	98235
#	111102
#	123467
#	137287
#	150435
#	163085
#	174120
#	187480
#	205917
#	220550
#
# Disc length: 3108 seconds
#
# Revision: 0
# Processed by: cddbd v1.5.2PL0 Copyright (c) Steve Scherf et al.
# Submitted via: CDex 1.70beta2
#
DISCID=df0c2211
DTITLE=リヴィング・ボッサ Featuring 沢田駿吾＆伊集加代 - Neo Standards - リヴィング・ボッサ Featuring 沢田駿吾＆伊集加代
DYEAR=2003
DGENRE=Jazz
TTITLE0=マシュ・ケ・ナダ
TTITLE1=黒いオルフェ
TTITLE2=デサフィナード
TTITLE3=夜のストレンジャー
TTITLE4=クワイエト・ナイト
TTITLE5=おいしい水
TTITLE6=男と女
TTITLE7=イパネマの娘
TTITLE8=フライ・ミー・トゥー・ザ・ムーン
TTITLE9=いそしぎ
TTITLE10=ソー・ダンソ・サンバ
TTITLE11=ミシェル
TTITLE12=ビン・ボン
TTITLE13=シナモン・アンド・クローヴ
TTITLE14=ハワイの結婚の歌
TTITLE15=白い恋人たち～恋は水色
TTITLE16=バラ色の人生
EXTD=YEAR: 2003
EXTT0=
EXTT1=
EXTT2=
EXTT3=
EXTT4=
EXTT5=
EXTT6=
EXTT7=
EXTT8=
EXTT9=
EXTT10=
EXTT11=
EXTT12=
EXTT13=
EXTT14=
EXTT15=
EXTT16=
PLAYORDER=
